<svg version="1.2" xmlns="http://www.w3.org/2000/svg" viewBox="0 0 93 28" width="93" height="28"><style>tspan{white-space:pre}.a{fill:#fff}.b{font-size: 16px;fill: #ffffff;font-weight: 700;font-family: "NotoKufiArabic-Bold", "Noto Kufi Arabic"}</style><path fill-rule="evenodd" class="a" d="m78.7 0c5.2 0 9.9 2.8 12.4 7.4 2.4 4.5 2.2 10-0.7 14.3-2.8 4.3-7.8 6.7-12.9 6.2-5.1-0.4-9.6-3.6-11.6-8.4h-5.4q-0.1 0-0.2 0-0.1-0.1-0.2-0.2-0.1 0-0.2-0.1 0-0.2 0-0.3 0-0.1 0-0.2 0.1-0.1 0.2-0.2 0-0.1 0.2-0.1 0.1-0.1 0.2-0.1h4.9q-0.2-0.6-0.3-1.2h-2.2q-0.1 0-0.3-0.1-0.1 0-0.2-0.1 0-0.1-0.1-0.2 0-0.1-0.1-0.2 0-0.2 0.1-0.3 0-0.1 0.1-0.2 0.1-0.1 0.2-0.1 0.1-0.1 0.3-0.1h2q-0.1-0.6-0.1-1.2h-4.8q-0.2 0-0.3 0-0.1-0.1-0.2-0.2-0.1 0-0.1-0.2-0.1-0.1-0.1-0.2 0-0.1 0.1-0.2 0-0.1 0.1-0.2 0.1-0.1 0.2-0.2 0.1 0 0.3 0h4.8q0-0.6 0.1-1.2h-2.1q-0.1 0-0.2-0.1-0.1 0-0.2-0.1-0.1-0.1-0.2-0.2 0-0.1 0-0.3 0-0.1 0-0.2 0.1-0.1 0.2-0.2 0.1-0.1 0.2-0.1 0.1-0.1 0.2-0.1h2.3q0.1-0.6 0.3-1.2h-0.9q-0.2 0-0.3 0-0.1-0.1-0.2-0.2-0.1-0.1-0.1-0.2-0.1-0.1-0.1-0.2 0-0.1 0.1-0.2 0-0.2 0.1-0.2 0.1-0.1 0.2-0.2 0.1 0 0.2 0h1.5q0.8-1.9 2.1-3.5 1.3-1.6 3-2.7 1.8-1.1 3.7-1.7 2-0.6 4-0.6zm-9.5 18.3q-0.1 0.1-0.2 0.2-0.1 0.1-0.1 0.2 0 0.1 0 0.2 0 0.1 0 0.2 0.1 0.2 0.1 0.2 0.1 0.1 0.2 0.2 0.1 0 0.3 0h16.8l2.3-11h-15.2q-0.1 0-0.2 0-0.1 0.1-0.2 0.2-0.1 0-0.1 0.2-0.1 0.1-0.1 0.2 0 0.1 0.1 0.2 0 0.1 0.1 0.2 0.1 0.1 0.2 0.2 0.1 0 0.2 0h4.4q0.1 0 0.2 0 0.1 0.1 0.2 0.2 0.1 0.1 0.1 0.2 0.1 0.1 0.1 0.2 0 0.1-0.1 0.3 0 0.1-0.1 0.1-0.1 0.1-0.2 0.2-0.1 0-0.2 0h-6q-0.2 0-0.3 0.1-0.1 0-0.2 0.1 0 0.1-0.1 0.2 0 0.1 0 0.2 0 0.2 0 0.3 0.1 0.1 0.2 0.2 0 0.1 0.2 0.1 0.1 0.1 0.2 0.1h4.9q0.1 0 0.2 0 0.2 0.1 0.2 0.1 0.1 0.1 0.2 0.2 0 0.2 0 0.3 0 0.1 0 0.2-0.1 0.1-0.1 0.2-0.1 0.1-0.2 0.1-0.2 0.1-0.3 0.1h-3.2q-0.1 0-0.3 0-0.1 0.1-0.2 0.2 0 0.1-0.1 0.2 0 0.1 0 0.2 0 0.1 0 0.2 0.1 0.2 0.2 0.2 0 0.1 0.2 0.2 0.1 0 0.2 0h1.9q0.2 0 0.3 0.1 0.1 0 0.2 0.1 0.1 0.1 0.1 0.2 0.1 0.1 0.1 0.2 0 0.1-0.1 0.3 0 0.1-0.1 0.2-0.1 0-0.2 0.1-0.1 0-0.2 0h-3.7q-0.1 0-0.2 0.1-0.1 0-0.2 0.1-0.1 0.1-0.1 0.2-0.1 0.1-0.1 0.3 0 0.1 0.1 0.2 0 0.1 0.1 0.2 0.1 0.1 0.2 0.1 0.1 0.1 0.3 0.1h5.6q0.1 0 0.2 0 0.2 0.1 0.2 0.2 0.1 0 0.2 0.1 0 0.2 0 0.3 0 0.1 0 0.2-0.1 0.1-0.1 0.2-0.1 0.1-0.2 0.2-0.1 0-0.3 0h-8q-0.2 0-0.3 0zm13.8-7.8q0.6 0 1.2 0.3 0.6 0.3 1 0.8 0.4 0.5 0.6 1.1 0.1 0.7-0.1 1.3-0.1 0.7-0.5 1.3-0.4 0.7-1 1.1-0.5 0.5-1.2 0.8-0.7 0.2-1.4 0.3-0.7 0-1.3-0.3-0.6-0.3-1-0.8-0.4-0.5-0.5-1.1-0.2-0.7 0-1.3 0.2-0.7 0.6-1.3 0.4-0.7 0.9-1.1 0.6-0.5 1.3-0.8 0.7-0.2 1.4-0.3zm-22 5.3h0.2q0.1 0 0.2 0.1 0.1 0 0.2 0.1 0.1 0.1 0.2 0.2 0 0.1 0 0.3 0 0.1 0 0.2-0.1 0.1-0.2 0.2-0.1 0.1-0.2 0.1-0.1 0.1-0.2 0.1h-0.2q-0.1 0-0.2-0.1-0.1 0-0.2-0.1-0.1-0.1-0.1-0.2-0.1-0.1-0.1-0.2 0-0.2 0-0.3 0.1-0.1 0.2-0.2 0.1-0.1 0.2-0.1 0.1-0.1 0.2-0.1zm1.1-7.3h0.4q0.2 0 0.3 0 0.1 0.1 0.2 0.2 0.1 0 0.1 0.2 0 0.1 0.1 0.2 0 0.1-0.1 0.2 0 0.1-0.1 0.2-0.1 0.1-0.2 0.1-0.1 0.1-0.2 0.1h-0.5q-0.1 0-0.2 0-0.2-0.1-0.3-0.2 0-0.1-0.1-0.2 0-0.1 0-0.2 0-0.1 0-0.3 0.1-0.1 0.1-0.1 0.1-0.1 0.2-0.2 0.2 0 0.3 0zm21.8 4.6q0.2-0.8-0.8-0.9l0.1-0.6h-0.7l-0.2 0.6q-0.1 0-0.2 0-0.1 0-0.2 0.1-0.1 0-0.2 0.1-0.1 0-0.2 0.1-0.1 0-0.2 0.1 0 0.1-0.1 0.2-0.1 0.1-0.1 0.2-0.1 0.1-0.1 0.2 0 0.1 0 0.1 0 0.1 0 0.2 0 0.1 0.1 0.2 0 0.1 0.1 0.1 0.1 0.1 0.2 0.2 0.1 0 0.2 0.1 0.1 0 0.2 0.1 0.1 0 0.2 0 0.1 0 0.2 0.1 0.1 0 0.2 0 0.1 0 0.2 0.1 0.1 0 0.2 0.1 0 0 0.1 0 0 0.1 0 0.1 0 0.1 0 0.1 0 0 0 0.1-0.1 0.5-0.8 0.5-0.8 0-0.8-0.6h-0.8q0 1 1 1.2l-0.1 0.5h0.8l0.1-0.5q0.1-0.1 0.2-0.1 0.1 0 0.2 0 0.1-0.1 0.2-0.1 0.1-0.1 0.2-0.1 0.1-0.1 0.2-0.1 0.1-0.1 0.2-0.2 0.1-0.1 0.1-0.3 0.1-0.1 0.1-0.2 0-0.1 0.1-0.2 0-0.1-0.1-0.2 0-0.1 0-0.2-0.1-0.1-0.1-0.2-0.1 0-0.2-0.1-0.1-0.1-0.2-0.1-0.1-0.1-0.2-0.1-0.1 0-0.3-0.1-0.1 0-0.2 0-0.1 0-0.2 0 0-0.1-0.1-0.1-0.1 0-0.2-0.1-0.1 0-0.1 0 0-0.1-0.1-0.1 0 0 0-0.1 0 0 0-0.1 0.1-0.3 0.7-0.3 0.7 0 0.6 0.4zm-14.2 0.3q-0.1 0-0.2 0.1-0.1 0.1-0.1 0.2-0.1 0.1-0.1 0.3 0 0.1 0.1 0.2 0 0.1 0.1 0.2 0.1 0.1 0.2 0.1 0.1 0.1 0.2 0.1h1.3q0.1 0 0.2-0.1 0.1 0 0.2-0.1 0.1-0.1 0.1-0.2 0.1-0.1 0.1-0.2 0-0.2-0.1-0.3 0-0.1-0.1-0.2-0.1-0.1-0.2-0.1-0.1-0.1-0.3-0.1h-1.2q-0.1 0-0.2 0.1zm-0.3-4.9q-0.1 0-0.2 0.1-0.1 0.1-0.1 0.2-0.1 0.1-0.1 0.2 0 0.1 0.1 0.3 0 0.1 0.1 0.2 0.1 0 0.2 0.1 0.1 0 0.2 0h1.6q0.1 0 0.2 0 0.1-0.1 0.2-0.1 0.1-0.1 0.1-0.2 0.1-0.2 0.1-0.3 0-0.1-0.1-0.2 0-0.1-0.1-0.2-0.1-0.1-0.2-0.1-0.1-0.1-0.2-0.1h-1.6q-0.1 0-0.2 0.1z"/><text style="transform:matrix(1,0,0,1,24.706,18.367)" ><tspan x="17.3" y="0" class="b">ا</tspan><tspan  y="0" class="b">ل</tspan><tspan  y="0" class="b">ب</tspan><tspan  y="0" class="b">ر</tspan><tspan  y="0" class="b">ك</tspan><tspan  y="0" class="b">ة</tspan><tspan  y="0" class="b">
</tspan></text></svg>